HIERARCHY
ROOT Hips
{
	OFFSET 0.000000 0.000000 0.000000
	CHANNELS 6 Xposition Yposition Zposition Xrotation Yrotation Zrotation
	JOINT C_ctrl
	{
		OFFSET 0.000000 35.040482 -0.000011
		CHANNELS 3 Xrotation Yrotation Zrotation
		JOINT Bip01
		{
			OFFSET -41.537640 41.789009 -0.000007
			CHANNELS 3 Xrotation Yrotation Zrotation
			JOINT Bip01_Pelvis
			{
				OFFSET -2.462887 0.000000 0.000000
				CHANNELS 3 Xrotation Yrotation Zrotation
				JOINT BN_Tail_01
				{
					OFFSET -11.399368 7.351341 -0.000013
					CHANNELS 3 Xrotation Yrotation Zrotation
					JOINT BN_Tail_02
					{
						OFFSET -11.365196 -0.343025 0.000012
						CHANNELS 3 Xrotation Yrotation Zrotation
						JOINT BN_Tail_03
						{
							OFFSET -15.076256 -0.454979 0.000017
							CHANNELS 3 Xrotation Yrotation Zrotation
							JOINT BN_Tail_04
							{
								OFFSET -17.395691 -0.525002 0.000016
								CHANNELS 3 Xrotation Yrotation Zrotation
								JOINT BN_Tail_05
								{
									OFFSET -16.699837 -0.504005 0.000016
									CHANNELS 3 Xrotation Yrotation Zrotation
									End Site
									{
										OFFSET 0.503998 -16.699829 0.000067
									}
								}
							}
						}
					}
				}
				JOINT Bip01_Spine
				{
					OFFSET 8.297798 5.916809 -0.000020
					CHANNELS 3 Xrotation Yrotation Zrotation
					JOINT Bip01_R_Thigh
					{
						OFFSET -8.297779 -5.916794 10.541781
						CHANNELS 3 Xrotation Yrotation Zrotation
						JOINT Bip01_R_Calf
						{
							OFFSET 5.631542 -22.906792 0.862690
							CHANNELS 3 Xrotation Yrotation Zrotation
							JOINT Bip01_R_HorseLink
							{
								OFFSET -16.984341 -19.231926 -3.555767
								CHANNELS 3 Xrotation Yrotation Zrotation
								JOINT Bip01_R_Foot
								{
									OFFSET 4.290367 -24.783146 0.578056
									CHANNELS 3 Xrotation Yrotation Zrotation
									JOINT Bip01_R_Toe0
									{
										OFFSET 3.561211 -5.815116 0.760802
										CHANNELS 3 Xrotation Yrotation Zrotation
										JOINT Bip01_R_Toe0Nub
										{
											OFFSET 16.135469 0.002017 1.534789
											CHANNELS 3 Xrotation Yrotation Zrotation
											End Site
											{
												OFFSET -0.000002 16.208284 -0.000056
											}
										}
									}
								}
							}
						}
					}
					JOINT Bip01_L_Thigh
					{
						OFFSET -8.297813 -5.916832 -10.541739
						CHANNELS 3 Xrotation Yrotation Zrotation
						JOINT Bip01_L_Calf
						{
							OFFSET 5.631535 -22.906792 -0.862625
							CHANNELS 3 Xrotation Yrotation Zrotation
							JOINT Bip01_L_HorseLink
							{
								OFFSET -16.984318 -19.231949 3.555875
								CHANNELS 3 Xrotation Yrotation Zrotation
								JOINT Bip01_L_Foot
								{
									OFFSET 4.290367 -24.783169 -0.577965
									CHANNELS 3 Xrotation Yrotation Zrotation
									JOINT Bip01_L_Toe0
									{
										OFFSET 3.561245 -5.815111 -0.760799
										CHANNELS 3 Xrotation Yrotation Zrotation
										JOINT Bip01_L_Toe0Nub
										{
											OFFSET 6.574303 -0.000005 -1.538561
											CHANNELS 3 Xrotation Yrotation Zrotation
											End Site
											{
												OFFSET 0.000004 -6.751935 0.000023
											}
										}
									}
								}
							}
						}
					}
					JOINT Bip01_Spine1
					{
						OFFSET 20.556803 -4.626213 -0.000025
						CHANNELS 3 Xrotation Yrotation Zrotation
						JOINT Saddle
						{
							OFFSET 17.608810 18.174690 -0.000143
							CHANNELS 3 Xrotation Yrotation Zrotation
							End Site
							{
								OFFSET -0.000063 -0.000061 -22.448387
							}
						}
						JOINT BN_center
						{
							OFFSET 10.743275 -13.417107 -0.172041
							CHANNELS 3 Xrotation Yrotation Zrotation
							End Site
							{
								OFFSET 22.434088 0.553078 -0.579614
							}
						}
						JOINT Bip01_Spine2
						{
							OFFSET 24.765072 -2.054115 -0.000032
							CHANNELS 3 Xrotation Yrotation Zrotation
							JOINT Handle
							{
								OFFSET 63.735676 16.430748 -16.052464
								CHANNELS 3 Xrotation Yrotation Zrotation
								JOINT IK_Chain01
								{
									OFFSET -4.713058 -6.020439 0.185448
									CHANNELS 3 Xrotation Yrotation Zrotation
									End Site
									{
										OFFSET -0.000023 -0.000023 -7.648071
									}
								}
							}
							JOINT BN_hair04_01
							{
								OFFSET 1.987491 16.256981 -2.049672
								CHANNELS 3 Xrotation Yrotation Zrotation
								JOINT BN_hair04_02
								{
									OFFSET -1.318762 -3.831451 -6.174704
									CHANNELS 3 Xrotation Yrotation Zrotation
									JOINT BN_hair04_03
									{
										OFFSET -0.827490 -5.886627 -5.656666
										CHANNELS 3 Xrotation Yrotation Zrotation
										End Site
										{
											OFFSET -2.658262 5.010620 -5.929780
										}
									}
								}
							}
							JOINT Bip01_Neck
							{
								OFFSET 25.574577 9.433014 -0.000084
								CHANNELS 3 Xrotation Yrotation Zrotation
								JOINT Bip01_R_Clavicle
								{
									OFFSET -16.535652 0.011192 6.705692
									CHANNELS 3 Xrotation Yrotation Zrotation
									JOINT Bip01_R_UpperArm
									{
										OFFSET 20.272621 -12.959984 2.510816
										CHANNELS 3 Xrotation Yrotation Zrotation
										JOINT Bip01_R_Forearm
										{
											OFFSET -13.633509 -15.503704 -0.653585
											CHANNELS 3 Xrotation Yrotation Zrotation
											JOINT Bip01_R_Hand
											{
												OFFSET 2.580030 -27.804676 -1.136415
												CHANNELS 3 Xrotation Yrotation Zrotation
												JOINT Bip01_R_Finger0
												{
													OFFSET -0.281744 -19.659061 -0.398649
													CHANNELS 3 Xrotation Yrotation Zrotation
													JOINT Bip01_Xtra02
													{
														OFFSET 4.152210 -5.712314 0.433813
														CHANNELS 3 Xrotation Yrotation Zrotation
														JOINT Bip01_Xtra02Nub
														{
															OFFSET 15.457960 0.041654 0.507982
															CHANNELS 3 Xrotation Yrotation Zrotation
															End Site
															{
																OFFSET -15.421730 -0.157725 -1.163459
															}
														}
													}
													JOINT Bip01_R_Finger0Nub
													{
														OFFSET 8.362326 -9.718440 -0.143142
														CHANNELS 3 Xrotation Yrotation Zrotation
														End Site
														{
															OFFSET -1.213036 -0.198171 9.872291
														}
													}
												}
											}
										}
									}
								}
								JOINT Bip01_L_Clavicle
								{
									OFFSET -16.535673 0.011162 -6.705583
									CHANNELS 3 Xrotation Yrotation Zrotation
									JOINT Bip01_L_UpperArm
									{
										OFFSET 20.272615 -12.959999 -2.510836
										CHANNELS 3 Xrotation Yrotation Zrotation
										JOINT Bip01_L_Forearm
										{
											OFFSET -13.633495 -15.503681 0.653678
											CHANNELS 3 Xrotation Yrotation Zrotation
											JOINT Bip01_L_Hand
											{
												OFFSET 2.579988 -27.804686 1.136487
												CHANNELS 3 Xrotation Yrotation Zrotation
												JOINT Bip01_L_Finger0
												{
													OFFSET -0.281765 -19.659058 0.398696
													CHANNELS 3 Xrotation Yrotation Zrotation
													JOINT Bip01_Xtra01
													{
														OFFSET 4.083549 -5.738758 -0.666714
														CHANNELS 3 Xrotation Yrotation Zrotation
														JOINT Bip01_Xtra01Nub
														{
															OFFSET 6.758158 -0.395525 -0.023239
															CHANNELS 3 Xrotation Yrotation Zrotation
															End Site
															{
																OFFSET 6.764923 -0.254147 -0.029908
															}
														}
													}
													JOINT Bip01_L_Finger0Nub
													{
														OFFSET -0.012636 -9.629153 0.045740
														CHANNELS 3 Xrotation Yrotation Zrotation
														End Site
														{
															OFFSET 0.988407 0.004791 8.293357
														}
													}
												}
											}
										}
									}
								}
								JOINT BN_hair03_01
								{
									OFFSET -5.894140 16.270622 -2.498433
									CHANNELS 3 Xrotation Yrotation Zrotation
									JOINT BN_hair03_02
									{
										OFFSET -0.189278 -7.800507 -6.219162
										CHANNELS 3 Xrotation Yrotation Zrotation
										JOINT BN_hair03_03
										{
											OFFSET 0.612345 -10.844475 -3.370718
											CHANNELS 3 Xrotation Yrotation Zrotation
											End Site
											{
												OFFSET -2.273296 2.862007 -10.769416
											}
										}
									}
								}
								JOINT Bip01_Neck1
								{
									OFFSET 9.383755 11.908699 -0.000007
									CHANNELS 3 Xrotation Yrotation Zrotation
									JOINT BN_hair02_01
									{
										OFFSET 9.126320 18.808022 -1.420810
										CHANNELS 3 Xrotation Yrotation Zrotation
										JOINT BN_hair02_02
										{
											OFFSET 0.393478 -5.181091 -5.248574
											CHANNELS 3 Xrotation Yrotation Zrotation
											JOINT BN_hair02_03
											{
												OFFSET 0.762280 -8.167076 -0.230047
												CHANNELS 3 Xrotation Yrotation Zrotation
												End Site
												{
													OFFSET -0.025837 -1.251419 -8.109770
												}
											}
										}
									}
									JOINT Bip01_Head
									{
										OFFSET 14.266129 10.475403 -0.000008
										CHANNELS 3 Xrotation Yrotation Zrotation
										JOINT BN_Reins_01
										{
											OFFSET 18.547455 -15.740112 -0.000035
											CHANNELS 3 Xrotation Yrotation Zrotation
											JOINT BN_Reins_02
											{
												OFFSET -5.372810 -5.884506 0.000028
												CHANNELS 3 Xrotation Yrotation Zrotation
												JOINT BN_Reins_03
												{
													OFFSET -6.395866 -15.947449 0.000070
													CHANNELS 3 Xrotation Yrotation Zrotation
													JOINT BN_Halter_R_01
													{
														OFFSET -1.234055 -3.096100 7.096737
														CHANNELS 3 Xrotation Yrotation Zrotation
														End Site
														{
															OFFSET 10.514435 -4.176861 -0.000004
														}
													}
													JOINT BN_Halter_L_01
													{
														OFFSET -1.234062 -3.096146 -7.096726
														CHANNELS 3 Xrotation Yrotation Zrotation
														End Site
														{
															OFFSET -10.514435 4.176865 -0.000000
														}
													}
													JOINT BN_Reins_04
													{
														OFFSET -6.737644 -16.971684 0.000074
														CHANNELS 3 Xrotation Yrotation Zrotation
														JOINT BN_Halter_R_02
														{
															OFFSET -4.688869 -11.781956 7.096771
															CHANNELS 3 Xrotation Yrotation Zrotation
															End Site
															{
																OFFSET 14.669624 -5.827511 -0.000006
															}
														}
														JOINT BN_Halter_L_02
														{
															OFFSET -4.688892 -11.782017 -7.096693
															CHANNELS 3 Xrotation Yrotation Zrotation
															End Site
															{
																OFFSET -14.669624 5.827507 -0.000002
															}
														}
														JOINT BN_Reins_05
														{
															OFFSET -6.822578 -16.971161 0.000074
															CHANNELS 3 Xrotation Yrotation Zrotation
															JOINT BN_Reins_06
															{
																OFFSET -6.140354 -15.095148 0.000066
																CHANNELS 3 Xrotation Yrotation Zrotation
																End Site
																{
																	OFFSET -15.095150 6.140352 -0.000002
																}
															}
														}
													}
												}
											}
										}
										JOINT BN_hair01_01
										{
											OFFSET 8.957344 8.870956 0.112121
											CHANNELS 3 Xrotation Yrotation Zrotation
											JOINT BN_hair01_02
											{
												OFFSET 6.002075 -2.962952 -3.121264
												CHANNELS 3 Xrotation Yrotation Zrotation
												End Site
												{
													OFFSET 5.917702 3.813591 -2.232396
												}
											}
										}
										JOINT BN_Eyebrow_R
										{
											OFFSET 11.795959 -0.430496 4.449781
											CHANNELS 3 Xrotation Yrotation Zrotation
											JOINT Bip01_Xtra06Nub
											{
												OFFSET 2.936661 -0.262573 3.246701
												CHANNELS 3 Xrotation Yrotation Zrotation
												End Site
												{
													OFFSET 2.768745 0.208199 3.394807
												}
											}
										}
										JOINT BN_Eyebrow_L
										{
											OFFSET 11.586395 -0.445618 -4.441728
											CHANNELS 3 Xrotation Yrotation Zrotation
											JOINT Bip01_Xtra05Nub
											{
												OFFSET 3.244698 -0.349442 -4.416700
												CHANNELS 3 Xrotation Yrotation Zrotation
												End Site
												{
													OFFSET 3.053162 0.072495 -4.564033
												}
											}
										}
										JOINT Bip01_R_Ear_01
										{
											OFFSET 7.142960 7.567184 4.311657
											CHANNELS 3 Xrotation Yrotation Zrotation
											JOINT Bip01_Xtra04Nub
											{
												OFFSET 9.464531 9.264214 1.682953
												CHANNELS 3 Xrotation Yrotation Zrotation
												End Site
												{
													OFFSET 8.448181 10.159340 1.910823
												}
											}
										}
										JOINT Bip01__L_Ear_01
										{
											OFFSET 7.214943 7.717056 -4.356771
											CHANNELS 3 Xrotation Yrotation Zrotation
											JOINT Bip01_Xtra03Nub
											{
												OFFSET 9.230225 8.944366 -2.322746
												CHANNELS 3 Xrotation Yrotation Zrotation
												End Site
												{
													OFFSET 8.170288 9.841324 -2.643566
												}
											}
										}
										JOINT Bip01_Jaw
										{
											OFFSET 9.196068 -4.110695 -0.000013
											CHANNELS 3 Xrotation Yrotation Zrotation
											JOINT Bip01_Ponytail1Nub
											{
												OFFSET 10.976463 -21.082108 -0.000053
												CHANNELS 3 Xrotation Yrotation Zrotation
												End Site
												{
													OFFSET 11.247093 -20.938980 0.000113
												}
											}
										}
										JOINT Bip01_HeadNub
										{
											OFFSET 29.954575 -18.249489 -0.000063
											CHANNELS 3 Xrotation Yrotation Zrotation
											End Site
											{
												OFFSET -9.198448 -13.366348 0.000168
											}
										}
									}
								}
							}
						}
					}
				}
			}
		}
	}
}
MOTION
Frames: 4
Frame Time: 0.033333
0.000000 0.000000 0.000000 0.000008 0.000000 -0.000000 -0.000000 0.000000 -0.000000 -0.030073 -1.997909 -0.873219 0.003491 0.000000 -0.000008 2.923907 -2.582724 35.620837 0.318489 -0.797049 20.866583 -0.587130 1.516027 17.811714 -0.974905 4.716313 11.557825 -0.274138 3.855416 4.363201 0.188866 0.989328 4.708707 -0.555932 11.334048 1.499607 0.710426 0.016567 -3.600295 1.817460 -0.046714 -9.218986 0.005665 -10.440016 7.765031 -0.000295 0.004917 0.001130 0.000101 -0.000137 0.000004 -1.482033 -9.974830 -5.465487 0.137297 0.008362 0.696721 -2.612783 0.160117 -13.287718 0.324647 11.281694 14.325162 -0.000888 0.000006 -0.003709 0.008762 -0.000456 0.038597 0.119445 0.980781 -3.268229 0.917530 -0.020778 6.784382 -0.003569 -0.188671 0.020278 0.046598 0.968706 -2.738189 0.000078 -0.000112 -0.000055 -0.000045 -0.014955 0.015042 2.586093 0.486203 -0.860323 2.162858 0.324626 -0.693857 5.503387 0.833501 -1.788418 1.647461 -1.257478 -5.213291 0.138936 1.717664 6.348464 -5.504139 -4.790366 7.348343 0.012096 0.173985 -4.253293 7.829369 2.444210 -0.221270 -4.304852 4.320583 -2.303701 -0.004997 -0.003857 0.005722 -0.802211 0.160618 -0.479875 -0.804179 0.123471 -0.482664 -3.312803 0.806981 4.950344 4.736870 -0.552708 5.774722 -0.000525 -0.014428 -0.352247 -6.486397 2.302563 -1.749641 2.565140 -5.569913 -1.494710 -0.003803 0.003226 -0.002349 0.036619 0.063819 2.451861 -0.000913 0.100573 2.451955 3.753739 0.408849 -0.664891 0.180329 0.040144 -0.039224 0.365181 0.050395 -0.143083 -2.153291 1.227663 -6.809127 4.517384 0.450502 -0.104620 0.032885 0.001587 0.029277 1.110114 0.094906 -0.097122 -0.533802 0.201136 -5.651392 -0.000030 0.000324 33.480078 -0.441787 -0.458728 -72.796108 -0.000060 -0.000072 -21.993988 0.000020 -0.000008 -0.026805 0.000002 -0.000016 0.012747 -0.000096 -0.000109 -34.639871 0.000036 0.000015 0.015163 0.000025 -0.000010 0.012721 -0.000048 -0.000055 -24.223450 0.000013 -0.000013 -0.000050 1.146977 2.856927 2.039550 0.761005 -0.149090 1.574647 -12.810611 -1.803844 -16.140973 0.024218 -0.030046 11.786597 9.655020 0.978694 -14.662685 0.023211 -0.032304 11.715997 -0.003757 0.001479 -0.000270 0.022921 0.006887 11.753047 0.000899 -0.000263 -0.001560 0.050134 0.014753 11.743095 -0.000019 -0.000231 0.000065 -0.004496 -0.052589 11.750674 0.000071 -0.000033 11.750683 
0.000000 0.000000 0.000000 0.000008 0.000000 -0.000000 -0.000000 0.000000 -0.000000 -0.034087 -1.997852 -0.959666 -0.032332 -0.263870 0.151822 2.460623 -1.953966 33.120475 0.563142 -1.296682 23.777944 -0.544918 1.406971 18.080926 -0.966718 4.793589 11.043258 -0.238084 3.925169 3.794232 0.334011 1.827313 5.065443 -1.150392 10.764930 3.328277 1.443151 -0.013136 -7.315559 1.561888 -0.022411 -7.918710 0.102763 -10.454471 8.009545 -0.000198 0.004915 0.000676 0.000101 -0.000138 0.000004 -1.425367 -10.504053 -3.889987 -0.618703 -0.016952 -3.135571 -2.263107 0.103146 -11.493898 0.437831 11.281224 14.388803 -0.000888 0.000007 -0.003709 0.008762 -0.000456 0.038597 0.051329 0.410819 -4.378648 0.917530 -0.020778 6.784383 -0.003574 -0.188672 0.020279 0.033636 0.402739 -3.241302 0.000078 -0.000112 -0.000055 -0.000045 -0.014955 0.015042 2.605268 0.608783 -0.955765 2.202883 0.336980 -0.716676 5.491561 0.911367 -1.884722 1.334799 -0.782608 -4.295318 0.509204 1.265998 5.425109 -5.600536 -4.085549 3.000774 0.003179 -0.219377 5.351060 8.075830 2.042492 -4.251935 -4.304854 4.320583 -2.303701 -0.004945 -0.003857 0.005736 -0.802239 0.160618 -0.479877 -0.804179 0.123471 -0.482664 -2.955677 0.408528 4.003272 4.595771 -0.138150 1.658838 -0.013695 0.340240 8.308597 -6.302732 2.533480 -5.138764 2.565140 -5.569913 -1.494711 -0.002712 -0.162012 -0.002199 0.036646 0.063819 2.451860 -0.000913 0.100573 2.451955 3.914154 0.424257 -0.692686 0.176931 0.045169 -0.056502 0.328543 0.048984 -0.147333 -2.199908 0.901475 -1.508292 4.754354 0.473160 -0.110906 0.052197 0.003406 0.028930 1.225370 0.105600 -0.099369 0.136911 0.994996 -7.712466 -0.000030 0.000324 33.480078 -0.441787 -0.458728 -72.796108 -0.000060 -0.000072 -21.993983 0.000020 -0.000008 -0.026805 0.000002 -0.000016 0.012747 -0.000096 -0.000109 -34.639875 0.000036 0.000015 0.015168 0.000026 -0.000010 0.012723 -0.000048 -0.000055 -24.223452 0.000013 -0.000013 -0.000048 1.324288 2.838238 2.380980 0.852005 -0.169558 1.767656 -12.823552 -1.824692 -16.134693 0.024236 -0.030043 11.786611 9.654461 0.952607 -14.658756 0.023225 -0.032294 11.715971 -0.264036 0.739628 -1.976687 0.022932 0.006912 11.753043 -0.602087 0.123311 -2.035369 0.050146 0.014778 11.743096 0.009626 -0.013926 0.018228 -0.004479 -0.052609 11.750675 0.000071 -0.000033 11.750671 
0.000000 0.000000 0.000000 0.000008 0.000000 -0.000000 -0.000000 0.000000 -0.000000 -0.039871 -1.997705 -1.152716 -0.066779 -0.536727 0.308953 2.013237 -1.298582 30.534193 0.782228 -1.698900 26.388724 -0.470954 1.172467 18.938216 -0.968278 4.847462 10.518291 -0.202051 3.993224 3.236211 0.479865 2.786999 5.422277 -1.801698 10.095382 5.376277 2.179975 -0.091307 -11.068825 1.385689 -0.009052 -7.023686 0.202102 -10.492490 8.588218 -0.000106 0.004915 0.000242 0.000101 -0.000137 0.000004 -1.389676 -11.124134 -2.317764 -1.354936 0.007012 -6.867529 -1.932209 0.059516 -9.803718 0.550603 11.279383 14.561171 -0.000888 0.000007 -0.003709 0.008762 -0.000457 0.038597 -0.050490 -0.246676 -5.618720 0.917530 -0.020778 6.784383 -0.003583 -0.188672 0.020279 0.018694 -0.230989 -3.737806 0.000078 -0.000112 -0.000056 -0.000045 -0.014955 0.015042 2.624290 0.728950 -1.049446 2.240349 0.362567 -0.750057 5.480119 0.987704 -1.979186 1.022537 -0.291872 -3.111164 0.877083 0.781700 4.240935 -5.729488 -3.322578 -1.286789 0.060093 -0.609028 14.963744 8.331699 1.627545 -8.120710 -4.304853 4.320583 -2.303701 -0.005070 -0.003933 0.005714 -0.802266 0.160617 -0.479879 -0.804179 0.123471 -0.482664 -2.604666 -0.003770 2.792831 4.428737 0.306181 -2.613194 -0.083210 0.700182 17.255616 -6.088563 2.745800 -8.434769 2.565140 -5.569913 -1.494711 -0.001644 -0.323985 -0.001993 0.036674 0.063819 2.451860 -0.000913 0.100573 2.451955 4.071477 0.439310 -0.719911 0.167703 0.061113 -0.101869 0.289862 0.052876 -0.163973 -2.215453 0.524665 4.459502 4.986712 0.495380 -0.117135 0.107874 0.008631 0.027953 1.338386 0.116080 -0.101591 0.931967 1.746883 -9.936700 -0.000030 0.000324 33.480074 -0.441787 -0.458728 -72.796108 -0.000060 -0.000072 -21.993983 0.000020 -0.000008 -0.026803 0.000002 -0.000016 0.012749 -0.000096 -0.000109 -34.639875 0.000036 0.000015 0.015168 0.000025 -0.000010 0.012721 -0.000048 -0.000055 -24.223450 0.000014 -0.000013 -0.000051 1.498262 2.820946 2.715819 0.941301 -0.189328 1.956946 -12.836249 -1.845132 -16.128530 0.024250 -0.030043 11.786635 9.653917 0.927027 -14.654924 0.023239 -0.032292 11.715949 -0.539250 1.544355 -4.028243 0.022944 0.006935 11.753057 -1.255988 0.301315 -4.154280 0.050158 0.014801 11.743082 0.019089 -0.027354 0.036047 -0.004461 -0.052630 11.750672 0.000071 -0.000033 11.750675 
0.000000 0.000000 0.000000 0.000008 0.000000 -0.000000 -0.000000 0.000000 -0.000000 -0.048759 -1.997566 -1.378133 -0.105753 -0.835676 0.475436 1.586827 -0.618308 28.010406 0.976860 -1.997441 28.548871 -0.360806 0.849841 20.277076 -0.965122 4.859858 10.086037 -0.164989 4.061585 2.672594 0.633754 3.847731 5.782291 -2.491091 9.352949 7.521096 2.900701 -0.215596 -14.772179 1.278104 -0.002256 -6.477661 0.311064 -10.543298 9.375426 -0.000028 0.004913 -0.000168 0.000101 -0.000138 0.000004 -1.389779 -11.803069 -0.815040 -2.065712 0.075941 -10.484798 -1.613081 0.026797 -8.178968 0.669650 11.268650 14.762235 -0.000888 0.000005 -0.003709 0.008762 -0.000457 0.038597 -0.174886 -0.971214 -6.959624 0.917530 -0.020778 6.784382 -0.003605 -0.188659 0.020279 -0.002708 -0.926795 -4.235484 0.000078 -0.000113 -0.000056 -0.000045 -0.014955 0.015042 2.643668 0.850277 -1.144091 2.278865 0.402364 -0.804931 5.468693 1.064773 -2.074611 0.696254 0.183636 -2.052905 1.233963 0.300416 3.194161 -5.860392 -2.524491 -5.145206 0.171801 -0.960716 23.971196 8.575092 1.189183 -11.675589 -4.304851 4.320584 -2.303701 -0.005315 -0.003852 0.005683 -0.802321 0.160617 -0.479883 -0.804179 0.123472 -0.482664 -2.258448 -0.414239 1.716390 4.229786 0.808123 -6.642481 -0.201196 1.030042 25.805942 -5.855808 2.918320 -11.457755 2.565141 -5.569914 -1.494711 -0.000523 -0.487696 -0.001858 0.036728 0.063821 2.451860 -0.000913 0.100574 2.451955 4.239416 0.455277 -0.749078 0.150127 0.089405 -0.189750 0.250790 0.056826 -0.180804 -2.193987 0.173323 10.095431 5.236055 0.518261 -0.123109 0.164119 0.013929 0.026941 1.452518 0.126660 -0.103860 1.831653 2.411478 -11.950108 -0.000030 0.000325 33.480074 -0.441787 -0.458728 -72.796102 -0.000060 -0.000072 -21.993984 0.000020 -0.000008 -0.026805 0.000002 -0.000016 0.012747 -0.000096 -0.000109 -34.639871 0.000035 0.000015 0.015163 0.000025 -0.000010 0.012723 -0.000048 -0.000055 -24.223438 0.000013 -0.000013 -0.000050 1.689087 2.802906 3.083924 1.031549 -0.208992 2.148145 -12.849054 -1.865793 -16.122329 0.024282 -0.030032 11.786676 9.653364 0.901224 -14.651046 0.023269 -0.032285 11.715896 -0.818828 2.429448 -6.190581 0.022972 0.006983 11.753057 -1.958980 0.536994 -6.393699 0.050184 0.014848 11.743073 0.028281 -0.038462 0.061240 -0.004427 -0.052672 11.750672 0.000072 -0.000033 11.750674 
